<svg xmlns="http://www.w3.org/2000/svg" width="256" height="256" viewBox="0 0 100 100"><rect width="100" height="100" rx="20" fill="#2c2c2c"></rect><path d="M19.63 60.30L19.63 60.30Q15.76 60.48 14.41 62.69Q13.06 64.89 13.06 67.77L13.06 67.77Q13.06 70.74 14.09 72.68Q15.13 74.61 16.66 75.69Q18.19 76.77 20.08 77.22Q21.97 77.67 23.68 77.67L23.68 77.67Q27.01 77.67 29.35 76.46Q31.69 75.24 33.17 73.26Q34.66 71.28 35.33 68.81Q36.00 66.33 36.00 63.90L36.00 63.90Q36.00 60.75 34.92 57.69Q33.84 54.63 31.69 52.11Q29.53 49.59 26.20 47.93Q22.87 46.26 18.37 45.81L18.37 45.81Q22.24 44.91 25.16 43.20Q28.09 41.49 30.07 39.38Q32.05 37.26 32.99 34.92Q33.94 32.58 33.94 30.24L33.94 30.24Q33.94 28.35 33.30 26.60Q32.67 24.84 31.42 23.49Q30.16 22.14 28.36 21.33Q26.56 20.52 24.22 20.52L24.22 20.52Q20.35 20.52 18.37 22.50Q16.39 24.48 16.39 27.09L16.39 27.09Q16.39 28.98 17.51 30.83Q18.64 32.67 20.98 34.29L20.98 34.29Q18.55 37.08 15.49 37.08L15.49 37.08Q12.61 37.08 10.54 34.70Q8.47 32.31 8.47 28.26L8.47 28.26Q8.47 25.20 9.82 22.86Q11.17 20.52 13.42 19.04Q15.67 17.55 18.64 16.79Q21.61 16.02 24.76 16.02L24.76 16.02Q28.09 16.02 31.37 16.88Q34.66 17.73 37.22 19.44Q39.78 21.15 41.36 23.85Q42.93 26.55 42.93 30.15L42.93 30.15Q42.93 32.49 42.21 34.88Q41.49 37.26 40.19 39.33Q38.88 41.40 37.04 43.11Q35.20 44.82 32.95 45.90L32.95 45.90Q40.59 48.96 43.97 53.19Q47.34 57.42 47.34 63.27L47.34 63.27Q47.34 67.41 45.50 71.15Q43.66 74.88 40.46 77.72Q37.27 80.55 33.03 82.26Q28.81 83.97 23.95 83.97L23.95 83.97Q21.61 83.97 18.32 83.39Q15.04 82.80 12.02 81.00Q9.01 79.20 6.85 75.78Q4.69 72.36 4.69 66.69L4.69 66.69Q4.69 61.56 6.85 58.77Q9.01 55.98 12.88 55.98L12.88 55.98Q13.69 55.98 14.63 56.12Q15.58 56.25 16.52 56.75Q17.46 57.24 18.28 58.10Q19.09 58.95 19.63 60.30ZM67.59 60.30L67.59 60.30Q63.72 60.48 62.38 62.69Q61.02 64.89 61.02 67.77L61.02 67.77Q61.02 70.74 62.06 72.68Q63.09 74.61 64.63 75.69Q66.16 76.77 68.05 77.22Q69.94 77.67 71.64 77.67L71.64 77.67Q74.97 77.67 77.31 76.46Q79.66 75.24 81.14 73.26Q82.63 71.28 83.30 68.81Q83.97 66.33 83.97 63.90L83.97 63.90Q83.97 60.75 82.89 57.69Q81.81 54.63 79.66 52.11Q77.50 49.59 74.16 47.93Q70.83 46.26 66.33 45.81L66.33 45.81Q70.20 44.91 73.13 43.20Q76.05 41.49 78.03 39.38Q80.02 37.26 80.96 34.92Q81.91 32.58 81.91 30.24L81.91 30.24Q81.91 28.35 81.28 26.60Q80.64 24.84 79.38 23.49Q78.13 22.14 76.32 21.33Q74.53 20.52 72.19 20.52L72.19 20.52Q68.31 20.52 66.33 22.50Q64.35 24.48 64.35 27.09L64.35 27.09Q64.35 28.98 65.48 30.83Q66.60 32.67 68.94 34.29L68.94 34.29Q66.52 37.08 63.45 37.08L63.45 37.08Q60.57 37.08 58.50 34.70Q56.43 32.31 56.43 28.26L56.43 28.26Q56.43 25.20 57.78 22.86Q59.13 20.52 61.38 19.04Q63.63 17.55 66.60 16.79Q69.58 16.02 72.72 16.02L72.72 16.02Q76.05 16.02 79.34 16.88Q82.63 17.73 85.19 19.44Q87.75 21.15 89.33 23.85Q90.91 26.55 90.91 30.15L90.91 30.15Q90.91 32.49 90.19 34.88Q89.47 37.26 88.16 39.33Q86.85 41.40 85.01 43.11Q83.16 44.82 80.91 45.90L80.91 45.90Q88.56 48.96 91.94 53.19Q95.31 57.42 95.31 63.27L95.31 63.27Q95.31 67.41 93.47 71.15Q91.63 74.88 88.43 77.72Q85.23 80.55 81.00 82.26Q76.78 83.97 71.91 83.97L71.91 83.97Q69.58 83.97 66.29 83.39Q63.00 82.80 59.99 81.00Q56.97 79.20 54.81 75.78Q52.66 72.36 52.66 66.69L52.66 66.69Q52.66 61.56 54.81 58.77Q56.97 55.98 60.84 55.98L60.84 55.98Q61.66 55.98 62.60 56.12Q63.55 56.25 64.49 56.75Q65.44 57.24 66.25 58.10Q67.05 58.95 67.59 60.30Z" fill="#fff"></path></svg>